<?xml version="1.0" standalone="no"?><!DOCTYPE svg PUBLIC "-//W3C//DTD SVG 1.1//EN" "http://www.w3.org/Graphics/SVG/1.1/DTD/svg11.dtd"><svg t="1549730873223" class="icon" style="" viewBox="0 0 1024 1024" version="1.1" xmlns="http://www.w3.org/2000/svg" p-id="3334" xmlns:xlink="http://www.w3.org/1999/xlink" width="16" height="16"><defs><style type="text/css"></style></defs><path d="M616.037 153.682c-42.973-15.073-89.18-23.269-137.3-23.269C249.684 130.413 64 316.123 64 545.207 64 774.29 249.684 960 478.737 960c229.054 0 414.738-185.71 414.738-414.793 0-47.57-8.007-93.27-22.745-135.824a57372.666 57372.666 0 0 0-55.693 55.773c6.091 25.693 9.315 52.495 9.315 80.05 0 190.904-154.737 345.662-345.615 345.662-190.877 0-345.614-154.758-345.614-345.661 0-190.904 154.737-345.662 345.614-345.662 28.138 0 55.49 3.363 81.676 9.709a69756.11 69756.11 0 0 0 55.624-55.572z m193.914-33.318c2.309 25.597 4.888 51.176 6.654 76.81 0.557 8.12 3.768 10.44 11.457 11.062 40.78 3.302 81.516 7.113 122.26 10.828 3.224 0.293 6.759-0.592 9.678 1.852-0.613 3.397-3.507 4.887-5.549 6.933-49.96 50.048-100.032 99.981-149.874 150.145-4.464 4.492-8.704 6.27-15.027 5.623-26.233-2.68-52.543-4.616-78.761-7.443-6.406-0.69-10.524 0.79-15.037 5.323-67.556 67.862-66.232 66.35-133.844 134.155-11.398 11.435-24.18 17.019-40.252 12.132-25.033-7.606-34.487-37.6-18.306-58.17 2.497-3.176 5.469-5.994 8.336-8.86 66.5-66.522 63.847-63.948 130.506-130.315 5.187-5.168 7.3-9.793 6.393-17.56-3.101-26.525-4.913-53.199-7.35-79.805-0.394-4.296 0.432-7.456 3.732-10.74 52.275-52.029 104.38-104.23 156.538-156.375 0.447-0.448 1.104-0.68 3.26-1.959 1.8 19.53 3.526 37.945 5.186 56.364zM651.545 545.207c0 95.451-77.369 172.83-172.808 172.83-95.438 0-172.807-77.379-172.807-172.83 0-95.452 77.369-172.831 172.807-172.831 14.286 0 28.166 1.733 41.443 5.002a25975.005 25975.005 0 0 0-25.677 25.616 163237.71 163237.71 0 0 0-41.797 41.81c-44.664 11.55-77.653 52.123-77.653 100.403 0 57.27 46.421 103.698 103.684 103.698 50.629 0 92.782-36.292 101.87-84.283a105329.596 105329.596 0 0 1 37.342-37.391c9.476-9.484 17.866-17.89 27.529-27.582 3.955 14.514 6.067 29.79 6.067 45.558z" fill="#1296db" p-id="3335"></path></svg>