<?xml version="1.0" standalone="no"?><!DOCTYPE svg PUBLIC "-//W3C//DTD SVG 1.1//EN" "http://www.w3.org/Graphics/SVG/1.1/DTD/svg11.dtd"><svg t="1549773168944" class="icon" style="" viewBox="0 0 1024 1024" version="1.1" xmlns="http://www.w3.org/2000/svg" p-id="19659" xmlns:xlink="http://www.w3.org/1999/xlink" width="128" height="128"><defs><style type="text/css"></style></defs><path d="M513.554 513.082m-450 0a450 450 0 1 0 900 0 450 450 0 1 0-900 0Z" fill="#FFBDBD" p-id="19660"></path><path d="M689.256 640.346c-1.037 0-2.046-0.033-3.06-0.061a2397.085 2397.085 0 0 1 31.734 17.993c67.516 38.981 120.222 74.091 120.222 74.091s-56.759-28.09-124.275-67.07a2455.753 2455.753 0 0 1-46.04-27.276c-18.24-4.216-31.894-13.922-43.317-26.872-19.274-12.221-30.865-19.942-30.865-19.942s9.342 4.623 24.953 12.721c-30.722-40.275-46.583-103.92-103.448-137.678 71.969-30.381 80.007-111.841 118.929-151.618-11.864-80.991-62.933-127.019-120.352-151.959-56.585 24.784-107.716 70.4-120.092 150.45 39.244 40.243 47.419 122.45 120.09 153.127-57.771 34.296-73.664 99.119-105.035 139.788 16.816-8.743 26.964-13.765 26.964-13.765s-12.672 8.441-33.539 21.635c-11.042 12.171-24.168 21.345-41.374 25.623a2448.5 2448.5 0 0 1-45.309 26.833c-67.516 38.98-124.275 67.07-124.275 67.07s52.706-35.11 120.222-74.091a2385.514 2385.514 0 0 1 30.34-17.216c-1.299 0.046-2.61 0.079-3.949 0.079-46.868 0-89.451-18.328-120.986-48.203-33.509 44.257-40.891 95.504-35.379 143.722 57.218 42.102 134.685 64.199 225 12.056 54.491-31.46 92.727-76.679 107.04-120.516 14.243 43.923 52.526 89.264 107.13 120.79 90.315 52.143 167.509 30.52 225-12.056 5.394-48.494-2.164-100.542-36.691-145.281-31.195 29.518-73.3 47.626-119.638 47.626zM509.683 313.755c0-77.961 4.053-141.161 4.053-141.161s4.053 63.2 4.053 141.161-4.053 141.161-4.053 141.161-4.053-63.2-4.053-141.161z m17.276 171.496c28.166 14.176 20.365 49.266 20.365 49.266s-4.547-19.593-28.045-31.873c-20.949-10.947-40.768-2.762-40.768-2.762s25.968-25.945 48.448-14.631z m-1.885 54.271a81.263 81.263 0 0 0-6.548 9.649 81.335 81.335 0 0 0-4.97 10.222 81.402 81.402 0 0 0-5.082-10.495 81.543 81.543 0 0 0-6.367-9.415c3.829 0.552 7.707 0.847 11.63 0.847a81.65 81.65 0 0 0 11.337-0.808z m-55.348 37.967s-25.946-25.969-14.632-48.449c14.176-28.166 49.266-20.364 49.266-20.364s-19.593 4.548-31.873 28.045c-10.947 20.949-2.761 40.768-2.761 40.768z m29.157 23.416c-28.166-14.176-20.364-49.266-20.364-49.266s4.547 19.593 28.045 31.873c20.949 10.947 40.768 2.762 40.768 2.762s-25.969 25.945-48.449 14.631z m71.865-43.789c-14.176 28.166-49.266 20.365-49.266 20.365s19.593-4.548 31.873-28.045c10.947-20.949 2.762-40.768 2.762-40.768s25.946 25.968 14.631 48.448z" fill="#BA0505" p-id="19661"></path><path d="M337.779 636.84c94.214 0 85.054-119.811 170.59-170.59-94.836-40.034-76.376-170.59-170.59-170.59s-170.59 76.376-170.59 170.59 76.376 170.59 170.59 170.59zM176.252 466.378c0-1.492 71.573 5.433 159.863 5.433s159.863-6.925 159.863-5.433-71.573 10.134-159.863 10.134-159.863-8.642-159.863-10.134zM518.592 466.25c85.573 50.801 76.409 170.663 170.663 170.663s170.663-76.409 170.663-170.663-76.408-170.663-170.662-170.663S613.47 426.199 518.592 466.25z m175.612 5.56c88.29 0 159.863-6.925 159.863-5.433s-71.573 10.134-159.863 10.134-159.863-8.642-159.863-10.134c0-1.491 71.573 5.433 159.863 5.433z" fill="#BA0505" p-id="19662"></path></svg>