<?xml version="1.0" standalone="no"?><!DOCTYPE svg PUBLIC "-//W3C//DTD SVG 1.1//EN" "http://www.w3.org/Graphics/SVG/1.1/DTD/svg11.dtd"><svg t="1549773267293" class="icon" style="" viewBox="0 0 1024 1024" version="1.1" xmlns="http://www.w3.org/2000/svg" p-id="20483" xmlns:xlink="http://www.w3.org/1999/xlink" width="128" height="128"><defs><style type="text/css"></style></defs><path d="M802.743 359.798c-46.09 54.781-249.451 159.844-249.451 159.844s68.43-217.98 114.521-272.763c46.09-54.783 113.658-73.915 150.92-42.732 37.261 31.18 30.1 100.869-15.99 155.65z m30.167 226.618C762.295 598.836 538.8 548.95 538.8 548.95s192.91-123.115 263.526-135.533C872.938 401 937.03 429.66 945.477 477.433c8.445 47.772-41.951 96.565-112.567 108.983zM709.964 779.357c-62.097-35.756-201.153-217.25-201.153-217.25s227.125 29.359 289.223 65.115c62.096 35.757 92.72 98.8 68.403 140.811-24.321 42.01-94.375 47.08-156.473 11.324zM491.431 848.34c-24.523-67.202-14.073-295.378-14.073-295.378s155.065 168.094 179.588 235.294c24.523 67.2 7.354 135.128-38.353 151.72-45.704 16.59-102.636-24.435-127.162-91.636z m-211.864-87.255c24.524-67.2 179.589-235.294 179.589-235.294s10.451 228.177-14.073 295.38c-24.524 67.199-81.458 108.226-127.163 91.634-45.706-16.591-62.878-84.517-38.353-151.72z m-106.064-202.66c62.097-35.757 289.222-65.117 289.222-65.117s-139.057 181.494-201.152 217.25c-62.098 35.756-132.152 30.687-156.473-11.324-24.32-42.01 6.306-105.052 68.403-140.81z m49.365-223.242c70.616 12.418 263.523 135.53 263.523 135.53s-223.495 49.889-294.108 37.469c-70.615-12.418-121.012-61.21-112.566-108.984 8.445-47.774 72.54-76.435 143.151-64.015z m181.7-139.367c46.09 54.781 114.52 272.764 114.52 272.764s-203.36-105.063-249.45-159.846c-46.091-54.783-53.25-124.47-15.99-155.652 37.259-31.18 104.829-12.047 150.92 42.734z m229.008 9.721c0 71.514-88.07 282.365-88.07 282.365s-88.068-210.851-88.068-282.365c0-71.513 39.433-129.486 88.07-129.486 48.64 0.001 88.068 57.973 88.068 129.486z" fill="#ff8b00" p-id="20484"></path></svg>